<svg width="24" height="24" viewBox="0 0 24 24" fill="none" xmlns="http://www.w3.org/2000/svg">
<path d="M19.915 13.028C19.527 12.47 19.638 12.178 19.915 11.709C19.92 11.704 22.008 8.856 22.311 7.631L22.313 7.63C22.464 7.128 22.313 6.75 21.576 6.75H19.536C18.915 6.75 18.634 7.07 18.483 7.426C18.483 7.426 17.554 9.54 16.211 10.95C15.646 11.515 15.387 11.694 15.076 11.694C14.926 11.694 14.697 11.515 14.697 11.012V7.63C14.697 7.009 14.52 6.75 14.01 6.75H10.761C10.372 6.75 10.15 7.022 10.15 7.278C10.15 7.866 10.947 7.99 11.033 9.517V11.789C11.033 12.588 10.891 12.719 10.579 12.719C9.831 12.719 8.34 10.593 7.447 7.667C7.229 7.004 6.993 6.75 6.367 6.75H4.327C3.628 6.75 3.5 7.07 3.5 7.426C3.5 8.073 4.248 10.695 6.362 14.047C7.794 16.394 9.91 17.75 11.826 17.75C12.981 17.75 13.363 17.41 13.363 16.803V14.965C13.363 14.266 13.499 14.138 13.996 14.138C14.357 14.138 14.979 14.317 16.047 15.342C17.27 16.565 17.541 17.75 18.478 17.75H20.518C21.216 17.75 21.556 17.41 21.358 16.724C20.941 15.457 18.788 13.419 18.645 13.228C18.284 12.77 18.393 12.57 18.645 12.176C18.65 12.171 20.683 9.374 21.014 8.017L21.016 8.015C21.214 7.513 21.014 7.135 20.277 7.135H18.237C17.747 7.135 17.485 7.444 17.334 7.8C17.334 7.8 16.405 9.914 15.062 11.324C14.612 11.774 14.374 11.924 14.096 11.924C13.946 11.924 13.746 11.774 13.746 11.271V8.015C13.746 7.525 13.583 7.135 13.073 7.135H9.824C9.542 7.135 9.363 7.334 9.363 7.525C9.363 7.993 9.992 8.083 10.05 9.207V11.879C10.05 12.509 9.932 12.603 9.654 12.603C8.906 12.603 7.608 10.476 6.76 8.04C6.592 7.522 6.374 7.135 5.884 7.135H3.844C3.295 7.135 3.2 7.444 3.2 7.8C3.2 8.307 3.948 10.557 6.062 13.909C7.494 16.256 9.61 17.612 11.526 17.612C12.681 17.612 13.063 17.272 13.063 16.665V14.827C13.063 14.278 13.17 14.183 13.667 14.183C14.028 14.183 14.65 14.362 15.718 15.387C16.941 16.61 17.212 17.612 18.149 17.612H20.189C20.739 17.612 21.079 17.272 20.929 16.761C20.495 15.343 18.1 13.144 18.1 13.144C17.738 12.686 17.848 12.486 18.1 12.092C18.105 12.087 20.138 9.29 20.469 7.933L20.471 7.931C20.621 7.429 20.471 7.135 19.734 7.135H17.694C17.204 7.135 16.942 7.444 16.791 7.8C16.791 7.8 15.862 9.914 14.519 11.324C14.069 11.774 13.831 11.924 13.553 11.924C13.403 11.924 13.203 11.774 13.203 11.271V7.931C13.203 7.441 13.04 7.135 12.53 7.135H9.281C8.999 7.135 8.82 7.334 8.82 7.525C8.82 7.993 9.449 8.083 9.507 9.207V11.879C9.507 12.509 9.389 12.603 9.111 12.603C8.363 12.603 7.065 10.476 6.217 8.04C6.049 7.522 5.831 7.135 5.341 7.135H3.301C2.752 7.135 2.657 7.444 2.657 7.8C2.657 8.307 3.405 10.557 5.519 13.909C6.951 16.256 9.067 17.612 10.983 17.612C12.138 17.612 12.52 17.272 12.52 16.665V14.827C12.52 14.278 12.627 14.183 13.124 14.183C13.485 14.183 14.107 14.362 15.175 15.387C16.398 16.61 16.669 17.612 17.606 17.612H19.646C20.196 17.612 20.536 17.272 20.386 16.761C19.952 15.343 17.557 13.144 17.557 13.144C17.195 12.686 17.305 12.486 17.557 12.092C17.562 12.087 19.595 9.29 19.926 7.933L19.928 7.931C20.078 7.429 19.928 7.135 19.191 7.135H17.151C16.661 7.135 16.399 7.444 16.248 7.8C16.248 7.8 15.319 9.914 13.976 11.324C13.526 11.774 13.288 11.924 13.01 11.924C12.86 11.924 12.66 11.774 12.66 11.271V7.931C12.66 7.441 12.497 7.135 11.987 7.135H8.738C8.456 7.135 8.277 7.334 8.277 7.525C8.277 7.993 8.906 8.083 8.964 9.207V11.879C8.964 12.509 8.846 12.603 8.568 12.603C7.82 12.603 6.522 10.476 5.674 8.04C5.506 7.522 5.288 7.135 4.798 7.135H2.758C2.209 7.135 2.114 7.444 2.114 7.8C2.114 8.307 2.862 10.557 4.976 13.909C6.408 16.256 8.524 17.612 10.44 17.612C11.595 17.612 11.977 17.272 11.977 16.665L11.977 14.827C11.977 14.278 12.084 14.183 12.581 14.183C12.942 14.183 13.564 14.362 14.632 15.387C15.855 16.61 16.126 17.612 17.063 17.612H19.103C19.653 17.612 19.993 17.272 19.843 16.761C19.409 15.343 17.014 13.144 17.014 13.144C16.652 12.686 16.762 12.486 17.014 12.092C17.019 12.087 19.052 9.29 19.383 7.933L19.385 7.931C19.535 7.429 19.385 7.135 18.648 7.135H16.608C16.118 7.135 15.856 7.444 15.705 7.8C15.705 7.8 14.776 9.914 13.433 11.324C12.983 11.774 12.745 11.924 12.467 11.924C12.317 11.924 12.117 11.774 12.117 11.271V7.931C12.117 7.441 11.954 7.135 11.444 7.135H8.195C7.913 7.135 7.734 7.334 7.734 7.525C7.734 7.993 8.363 8.083 8.421 9.207V11.879C8.421 12.509 8.303 12.603 8.025 12.603C7.277 12.603 5.979 10.476 5.131 8.04C4.963 7.522 4.745 7.135 4.255 7.135H2.215C1.666 7.135 1.571 7.444 1.571 7.8C1.571 8.307 2.319 10.557 4.433 13.909C5.865 16.256 7.981 17.612 9.897 17.612C11.052 17.612 11.434 17.272 11.434 16.665V14.827C11.434 14.278 11.541 14.183 12.038 14.183C12.399 14.183 13.021 14.362 14.089 15.387C15.312 16.61 15.583 17.612 16.52 17.612H18.56C19.11 17.612 19.45 17.272 19.3 16.761C18.866 15.343 16.471 13.144 16.471 13.144C16.109 12.686 16.219 12.486 16.471 12.092C16.476 12.087 18.509 9.29 18.84 7.933L18.842 7.931C18.992 7.429 18.842 7.135 18.105 7.135H16.065C15.575 7.135 15.313 7.444 15.162 7.8C15.162 7.8 14.233 9.914 12.89 11.324C12.44 11.774 12.202 11.924 11.924 11.924C11.774 11.924 11.574 11.774 11.574 11.271V7.931C11.574 7.441 11.411 7.135 10.901 7.135H7.652C7.37 7.135 7.191 7.334 7.191 7.525C7.191 7.993 7.82 8.083 7.878 9.207V11.879C7.878 12.509 7.76 12.603 7.482 12.603C6.734 12.603 5.436 10.476 4.588 8.04C4.42 7.522 4.202 7.135 3.712 7.135H1.672C1.123 7.135 1.028 7.444 1.028 7.8C1.028 8.307 1.776 10.557 3.89 13.909C5.322 16.256 7.438 17.612 9.354 17.612C10.509 17.612 10.891 17.272 10.891 16.665L10.891 14.827C10.891 14.278 10.998 14.183 11.495 14.183C11.856 14.183 12.478 14.362 13.546 15.387C14.769 16.61 15.04 17.612 15.977 17.612H18.017C18.567 17.612 18.907 17.272 18.757 16.761C18.323 15.343 15.928 13.144 15.928 13.144C15.566 12.686 15.676 12.486 15.928 12.092" fill="#30AA6E"/>
</svg>
