<svg width="24" height="24" viewBox="0 0 24 24" fill="none" xmlns="http://www.w3.org/2000/svg">
<path fill-rule="evenodd" clip-rule="evenodd" d="M20.5027 3.49734C18.2578 1.25245 15.2559 0 12.0508 0C5.46348 0 0.101693 5.36179 0.101693 11.9491C0.101693 14.0696 0.644383 16.1421 1.67896 17.9798L0 24L6.16179 22.3554C7.93861 23.2979 9.97151 23.7914 12.0508 23.7914C18.6381 23.7914 23.9999 18.4296 23.9999 11.8424C23.9999 8.63732 22.7475 5.63538 20.5027 3.49734ZM12.0508 21.7767C10.2739 21.7767 8.49712 21.2832 6.9726 20.3407L6.59794 20.1273L2.86308 21.1298L3.86561 17.5062L3.65221 17.1315C2.60054 15.5536 2.00701 13.7767 2.00701 11.9491C2.00701 6.36446 6.46559 1.90588 12.0502 1.90588C14.7153 1.90588 17.2203 2.94671 19.0572 4.78358C20.894 6.62044 22.0416 9.12542 22.0416 11.8424C22.0416 17.427 17.5831 21.7767 12.0508 21.7767ZM17.4358 14.4443C17.1145 14.2843 15.6766 13.5752 15.4086 13.4686C15.1406 13.362 14.9272 13.3087 14.7138 13.6299C14.5004 13.9512 13.9536 14.6069 13.7402 14.8203C13.5268 15.0337 13.3668 15.0337 13.0455 14.8737C12.7242 14.7137 11.7751 14.3924 10.6808 13.4153C9.83164 12.6529 9.2315 11.7104 9.0181 11.3891C8.8047 11.0678 8.99897 10.8544 9.18523 10.6677C9.35237 10.5077 9.55493 10.2397 9.7417 10.0263C9.92846 9.81293 9.98179 9.65963 10.0884 9.44623C10.195 9.23283 10.1417 9.01943 10.0351 8.85944C9.92846 8.69944 9.33493 7.26152 9.06793 6.61886C8.80093 5.9762 8.53393 6.08279 8.32053 6.08279C8.10713 6.08279 7.89373 6.02946 7.68033 6.02946C7.46693 6.02946 7.09227 6.13605 6.82527 6.45738C6.55827 6.77871 5.79591 7.48804 5.79591 8.92596C5.79591 10.3639 6.87859 11.7485 7.01946 11.9619C7.16032 12.1753 9.22456 15.3549 12.3496 16.5806C13.1119 16.9019 13.7079 17.1166 14.1748 17.2765C14.9371 17.5435 15.6232 17.5035 16.1699 17.3969C16.7699 17.2903 17.9156 16.6743 18.1826 15.9249C18.4496 15.1756 18.4496 14.5329 18.343 14.4263C18.2364 14.3197 18.023 14.2131 17.4358 14.4443Z" fill="#30AA6E"/>
</svg>
