<svg width="50" height="50" viewBox="0 0 50 50" fill="none" xmlns="http://www.w3.org/2000/svg">
<path fill-rule="evenodd" clip-rule="evenodd" d="M43.4695 37.957L44.25 39V25C44.25 19.8946 42.2219 14.9983 38.6118 11.3882C35.0017 7.77812 30.1054 5.75 25 5.75C19.8946 5.75 14.9983 7.77812 11.3882 11.3882C7.77812 14.9983 5.75 19.8946 5.75 25V40.9145L12.596 35.2095C13.2319 34.679 13.9661 34.279 14.7567 34.0325C15.5472 33.7859 16.3787 33.6977 17.2034 33.7728C18.0281 33.8479 18.8299 34.0848 19.563 34.4701C20.296 34.8553 20.9459 35.3813 21.4755 36.018L28.248 44.1485C28.2745 44.1811 28.308 44.2074 28.346 44.2253C28.384 44.2432 28.4256 44.2523 28.4676 44.252C28.5096 44.2516 28.551 44.2418 28.5887 44.2233C28.6265 44.2048 28.6595 44.178 28.6855 44.145L33.7605 37.8065C34.346 37.0747 35.0912 36.4866 35.939 36.0873C36.7868 35.6879 37.7148 35.4878 38.6519 35.5023C39.589 35.5168 40.5103 35.7456 41.3453 36.1711C42.1803 36.5965 42.907 37.2074 43.4695 37.957ZM32.7875 47.4245L35.1885 44.418L35.696 43.788L37.859 41.086C37.9441 40.9803 38.0521 40.8954 38.1749 40.8377C38.2977 40.7801 38.432 40.7511 38.5676 40.7532C38.7033 40.7552 38.8367 40.7881 38.9577 40.8494C39.0787 40.9107 39.1841 40.9988 39.266 41.107L41.3415 43.872L41.828 44.5195V44.523L43.2 46.35C43.6408 46.9377 44.2552 47.3718 44.9564 47.5908C45.6576 47.8098 46.4099 47.8027 47.1068 47.5704C47.8037 47.3381 48.4098 46.8924 48.8393 46.2965C49.2689 45.7006 49.5 44.9846 49.5 44.25V25C49.5 21.7826 48.8663 18.5967 47.635 15.6243C46.4038 12.6518 44.5992 9.95092 42.3241 7.67588C40.0491 5.40085 37.3482 3.59619 34.3757 2.36495C31.4033 1.13371 28.2174 0.5 25 0.5C21.7826 0.5 18.5967 1.13371 15.6243 2.36495C12.6518 3.59619 9.95092 5.40085 7.67588 7.67588C5.40085 9.95092 3.59619 12.6518 2.36495 15.6243C1.13371 18.5967 0.5 21.7826 0.5 25V43.8965C0.499788 44.6291 0.708399 45.3465 1.10138 45.9648C1.49437 46.583 2.05544 47.0765 2.71884 47.3872C3.38223 47.698 4.12047 47.8132 4.84701 47.7194C5.57356 47.6256 6.25831 47.3266 6.821 46.8575L15.956 39.245C16.062 39.1558 16.1845 39.0885 16.3166 39.0469C16.4487 39.0054 16.5877 38.9903 16.7257 39.0027C16.8636 39.015 16.9977 39.0546 17.1203 39.119C17.2429 39.1834 17.3516 39.2714 17.44 39.378L24.216 47.5085C24.7408 48.1394 25.3995 48.6457 26.1442 48.9904C26.8889 49.3352 27.7011 49.5099 28.5217 49.5019C29.3423 49.4939 30.1509 49.3033 30.8887 48.944C31.6266 48.5846 32.2752 48.0656 32.7875 47.4245ZM21.5 25C22.1962 25 22.8639 24.7234 23.3562 24.2312C23.8484 23.7389 24.125 23.0712 24.125 22.375V18.875C24.125 18.1788 23.8484 17.5111 23.3562 17.0188C22.8639 16.5266 22.1962 16.25 21.5 16.25C20.8038 16.25 20.1361 16.5266 19.6438 17.0188C19.1516 17.5111 18.875 18.1788 18.875 18.875V22.375C18.875 23.824 20.051 25 21.5 25ZM35.5 25C36.1962 25 36.8639 24.7234 37.3562 24.2312C37.8484 23.7389 38.125 23.0712 38.125 22.375V18.875C38.125 18.1788 37.8484 17.5111 37.3562 17.0188C36.8639 16.5266 36.1962 16.25 35.5 16.25C34.8038 16.25 34.1361 16.5266 33.6438 17.0188C33.1516 17.5111 32.875 18.1788 32.875 18.875V22.375C32.875 23.824 34.051 25 35.5 25Z" fill="#30AA6E"/>
</svg>
