<svg width="14" height="14" viewBox="0 0 14 14" fill="none" xmlns="http://www.w3.org/2000/svg">
<path fill-rule="evenodd" clip-rule="evenodd" d="M4.25 4.49674C3.83579 4.49674 3.5 4.16095 3.5 3.74674V3.00001C2.67157 3.00001 2 3.67159 2 4.50001V5.50001H12V4.50001C12 3.67159 11.3284 3.00001 10.5 3.00001V3.75003C10.5 4.16425 10.1642 4.50003 9.75 4.50003C9.33579 4.50003 9 4.16425 9 3.75003V3.00001H5V3.74674C5 4.16095 4.66421 4.49674 4.25 4.49674ZM9 1.50001H5V0.747559C5 0.333345 4.66421 -0.00244141 4.25 -0.00244141C3.83579 -0.00244141 3.5 0.333345 3.5 0.747559V1.50001C1.84315 1.50001 0.5 2.84316 0.5 4.50001V10.5C0.5 12.1569 1.84315 13.5 3.5 13.5H10.5C12.1569 13.5 13.5 12.1569 13.5 10.5V4.50001C13.5 2.84316 12.1569 1.50001 10.5 1.50001V0.750014C10.5 0.3358 10.1642 1.35833e-05 9.75 1.35899e-05C9.33579 1.35964e-05 9 0.3358 9 0.750014V1.50001ZM2 7.00001V10.5C2 11.3284 2.67157 12 3.5 12H10.5C11.3284 12 12 11.3284 12 10.5V7.00001H2Z" fill="black" fill-opacity="0.5"/>
</svg>
