<svg width="194" height="36" viewBox="0 0 194 36" fill="none" xmlns="http://www.w3.org/2000/svg">
<path fill-rule="evenodd" clip-rule="evenodd" d="M18.0581 0C22.8775 0 27.4194 1.87046 30.8258 5.27586V5.28425C34.2406 8.68127 36.1162 13.2022 36.1162 18.0168V18.8555C36.1162 18.9101 36.112 18.9667 36.1078 19.0233C36.1036 19.0799 36.0994 19.1365 36.0994 19.1911V19.2498C35.8975 22.1435 35.0144 24.9115 33.5256 27.3523L31.8939 26.3458C33.2229 24.165 34.0135 21.6822 34.1901 19.1156V19.0569C34.1985 18.9562 34.2069 18.8555 34.2069 18.7549V18.0084C34.2069 13.7139 32.5332 9.67101 29.48 6.62628C26.4353 3.58993 22.3729 1.9124 18.0665 1.9124C13.7601 1.9124 9.70612 3.58155 6.65298 6.62628C3.60825 9.66263 1.92608 14.8882 1.92608 18.0084C1.92608 21.1286 2.81764 24.1146 4.46616 26.6813C4.93717 27.4026 5.46705 28.0988 6.05581 28.753C6.24926 28.9711 6.40065 29.1305 6.66139 29.3905C6.92213 29.6505 7.18287 29.8938 7.45201 30.1286C7.48982 30.1621 7.52763 30.1936 7.56544 30.225C7.60329 30.2564 7.64126 30.288 7.6791 30.3215C7.68331 30.3257 7.68962 30.3299 7.69593 30.3341C7.70223 30.3383 7.70854 30.3425 7.71275 30.3467C7.85573 30.4641 7.99872 30.5815 8.1417 30.6906C6.88007 28.8117 6.14833 26.5471 6.14833 24.1146V14.5694H9.73976C9.91639 14.5694 10.1014 14.5778 10.2781 14.5862C10.6818 14.6114 11.0855 14.6617 11.4808 14.7372C11.8425 14.8127 12.2041 14.9049 12.5574 15.014C14.2732 15.5592 15.7703 16.5909 16.8974 17.9413C16.6451 18.3439 16.4264 18.7633 16.2245 19.1911C16.1236 19.4091 16.0227 19.6356 15.9386 19.8621C15.1816 18.6962 14.1134 17.7568 12.8434 17.1696C12.2294 16.8844 11.5817 16.6831 10.892 16.5741C10.5136 16.5154 10.1267 16.4818 9.73135 16.4818H8.04918V24.1146C8.04918 28.6272 11.0687 32.452 15.1984 33.685C15.5096 33.7773 15.8292 33.8611 16.1572 33.9198C16.4769 33.9786 16.7965 34.0205 17.1161 34.0541V23.8294C17.1161 23.4939 17.1413 23.1584 17.175 22.8229C17.217 22.4371 17.2843 22.0513 17.3768 21.6738C17.4609 21.3215 17.5619 20.9776 17.688 20.6421C17.7974 20.3318 17.9319 20.0382 18.0749 19.7446C18.2431 19.4007 18.4282 19.0736 18.6384 18.7633C18.8235 18.4781 19.0338 18.2013 19.2524 17.9329C20.3795 16.5825 21.8766 15.5508 23.5924 15.0056C23.9373 14.8882 24.2989 14.7959 24.669 14.7288C25.0559 14.6533 25.4596 14.603 25.8718 14.5778C26.0484 14.561 26.225 14.561 26.4101 14.561H30.0015V24.1062C30.0015 26.5387 29.2698 28.8034 28.0081 30.6906C26.3764 33.123 23.87 34.9348 20.943 35.6561C20.6234 35.7316 20.3122 35.7987 19.9842 35.849C19.6646 35.8993 19.345 35.9413 19.0253 35.9664L19.0018 35.9682C18.7831 35.9844 18.5717 36 18.3525 36H17.1077C17.032 35.9916 16.9562 35.9832 16.8806 35.9832H16.8217C16.5947 35.9665 16.3674 35.9497 16.1488 35.9245C15.8292 35.891 15.5096 35.849 15.19 35.7987C13.3564 35.5051 11.607 34.9431 9.96686 34.1212C8.81457 33.5424 7.72116 32.8378 6.70345 32.0158L6.45112 31.8145L6.42589 31.7894C6.38384 31.7516 6.3397 31.7139 6.29555 31.6762C6.29003 31.6714 6.28448 31.6667 6.27897 31.662C6.24036 31.629 6.20195 31.5959 6.16515 31.5629C6.15929 31.5512 6.14933 31.5436 6.14099 31.5372C6.13737 31.5344 6.13405 31.5319 6.13151 31.5294C5.84554 31.2777 5.55957 31.0177 5.29042 30.7409C1.87562 27.3439 0 22.8145 0 18.0084C0 13.2022 1.87562 8.68127 5.29042 5.27586C8.69682 1.87046 13.2387 0 18.0581 0ZM19.1094 22.6887C19.0506 23.0662 19.0169 23.452 19.0169 23.8462V34.0541C19.345 34.0289 19.6646 33.9786 19.9758 33.9198C20.3038 33.8611 20.6234 33.7773 20.9346 33.685C25.0643 32.452 28.0838 28.6272 28.0838 24.1146V16.4818H26.4017C26.0063 16.4818 25.6194 16.5154 25.241 16.5741C24.5513 16.6831 23.9036 16.8844 23.2896 17.1696C22.0196 17.7651 20.9514 18.6962 20.1945 19.8621C20.0094 20.1389 19.8496 20.4324 19.7066 20.7428C19.6646 20.835 19.6225 20.9273 19.5805 21.028C19.3618 21.5564 19.202 22.11 19.1094 22.6887Z" fill="white"/>
<path d="M23.071 13.1687C23.4158 13.0596 23.7607 12.9758 24.1139 12.9003L24.1055 12.8919C24.0887 12.8709 24.074 12.8479 24.0592 12.8248C24.0482 12.8075 24.0372 12.7902 24.0252 12.7738C24.0232 12.771 24.0212 12.7683 24.0192 12.7656C24.0172 12.763 24.0151 12.7603 24.013 12.7577C22.2467 10.1659 20.144 8.56384 19.1179 7.87605C18.7562 7.64119 18.5291 7.50699 18.4955 7.49021L18.0329 7.2302L17.5703 7.48183C17.5366 7.4986 17.36 7.60764 17.0656 7.79217C16.0816 8.42963 13.8359 10.082 11.9939 12.85C11.9906 12.8566 11.9859 12.8619 11.9816 12.8669C11.9748 12.8746 11.9686 12.8817 11.9686 12.8919C12.3303 12.9674 12.6836 13.0596 13.0368 13.1687C13.3312 13.2526 13.6172 13.3532 13.8947 13.4706C15.4255 11.3318 17.2086 9.99814 18.0329 9.45294C18.8571 10.0065 20.6318 11.3318 22.1878 13.4874C22.4738 13.37 22.7682 13.2609 23.071 13.1687Z" fill="white"/>
<path d="M60.7853 8.22832L53.0473 17.9077L45.3093 8.22832H44.3421V27.4865H46.613V14.9553C46.613 14.4939 46.5878 14.0075 46.5289 13.4874L46.8653 13.9571L46.917 14.0237C47.0462 14.1899 47.1861 14.3699 47.3195 14.5694C47.4793 14.7875 47.6391 15.0056 47.8073 15.2069C48.3036 15.7773 49.6745 17.3374 51.9118 19.8788L53.0221 21.1202C54.0061 20.0885 55.1164 18.8472 56.3612 17.3961C57.606 15.945 58.6741 14.6533 59.5657 13.5126C59.5068 14.192 59.4816 14.6785 59.4816 14.9553V27.4865H61.7525V8.22832H60.7853Z" fill="white"/>
<path fill-rule="evenodd" clip-rule="evenodd" d="M65.3103 27.4865L73.4352 7.95154H74.352L82.5357 27.4865H80.1218L77.5144 21.3718H70.2727L67.7242 27.4865H65.3103ZM73.4604 13.4035L71.1306 19.3252H76.6145L74.2594 13.4035L74.0408 12.6822L73.8725 12.0447L73.6791 12.657L73.4604 13.4035Z" fill="white"/>
<path fill-rule="evenodd" clip-rule="evenodd" d="M137.046 12.808C136.197 11.3402 135.053 10.1827 133.606 9.31872C132.16 8.46317 130.57 8.03541 128.837 8.03541C127.105 8.03541 125.532 8.46317 124.077 9.31872C122.622 10.1743 121.478 11.3402 120.637 12.808C119.796 14.2759 119.375 15.8863 119.375 17.6393V18.4445C119.375 20.2731 119.787 21.9087 120.611 23.3513C121.436 24.8024 122.571 25.9431 124.026 26.7819C125.481 27.6207 127.121 28.0484 128.947 28.0652C130.705 28.082 132.294 27.6794 133.716 26.849C135.137 26.0186 136.264 24.8695 137.088 23.3933C137.913 21.917 138.325 20.2647 138.325 18.4445V17.6393C138.325 15.8863 137.896 14.2759 137.046 12.808ZM136.045 18.4362C136.045 19.8537 135.734 21.137 135.103 22.2861C134.473 23.4268 133.615 24.3327 132.521 24.9869C131.428 25.6412 130.208 25.9683 128.863 25.9683C127.517 25.9683 126.289 25.6412 125.187 24.9869C124.085 24.3327 123.219 23.4352 122.596 22.2861C121.966 21.1454 121.654 19.8621 121.654 18.4362V17.6309C121.654 16.2889 121.974 15.0391 122.613 13.8816C123.253 12.7325 124.119 11.8183 125.204 11.1472C126.297 10.4762 127.5 10.1407 128.812 10.1407C130.124 10.1407 131.361 10.4762 132.462 11.1472C133.564 11.8183 134.439 12.7325 135.087 13.8816C135.734 15.0307 136.054 16.2805 136.054 17.6309V18.4362H136.045Z" fill="white"/>
<path d="M143.901 18.8891C144.103 16.0457 144.204 12.5983 144.204 8.53867H155.819V27.4865H153.54V10.6356H146.324C146.307 12.8835 146.231 15.232 146.105 17.6645C145.97 20.0969 145.768 22.11 145.491 23.6952C145.255 25.1547 144.793 26.2283 144.12 26.9077C143.447 27.5871 142.682 27.931 141.832 27.931C141.311 27.931 140.814 27.8136 140.335 27.5871C139.847 27.3523 139.46 27.0419 139.166 26.6561L140.806 25.3308C141.025 25.6244 141.353 25.7754 141.773 25.7754C142.194 25.7754 142.505 25.6244 142.698 25.3225C142.892 25.0205 143.069 24.5424 143.237 23.8965C143.531 22.6803 143.75 21.0112 143.901 18.8891Z" fill="white"/>
<path d="M175.055 8.20316L163.154 23.0326L162.767 23.7204L162.792 22.9487L162.817 8.45479H160.572V27.4865H161.741L163.347 25.9096L172.809 14.5694L173.894 13.1351L173.751 14.9636V27.4949H176.022V8.21154H175.055V8.20316Z" fill="white"/>
<path d="M184.374 9.25162C185.198 8.73997 186.107 8.47995 187.108 8.47995L187.116 8.46318H193.5V27.4697H191.229V10.5685H187.234C186.292 10.5685 185.518 10.9124 184.921 11.6169C184.324 12.3131 184.021 13.219 184.021 14.3262C184.021 15.4334 184.332 16.3057 184.963 16.9431C185.594 17.5806 186.452 17.8993 187.545 17.8993H190.211V20.0298C189.538 20.0466 188.983 20.1556 188.529 20.3485C188.075 20.5415 187.713 20.7763 187.444 21.0531C187.175 21.3299 186.864 21.699 186.511 22.1603L183.289 26.5554C182.717 27.3355 181.7 27.7213 180.959 27.7213C180.219 27.7213 179.689 27.5368 179.353 27.1677L180.354 25.4231C180.514 25.5908 180.715 25.6747 180.934 25.6747C181.06 25.6747 181.186 25.6328 181.304 25.5489C181.422 25.465 181.565 25.3224 181.733 25.1211C181.918 24.8863 182.734 23.7959 184.172 21.8583L185.198 20.4744C185.493 20.1053 185.762 19.8453 186.014 19.6859C186.267 19.5349 186.654 19.384 187.192 19.233C186.174 19.233 185.434 19.1659 184.971 19.0401C184.063 18.7884 183.298 18.1845 182.667 17.2451C182.036 16.3057 181.725 15.0391 181.725 14.0662C181.725 13.0932 181.96 12.1705 182.431 11.315C182.902 10.4511 183.55 9.77166 184.374 9.25162Z" fill="white"/>
<path d="M86.0599 8.50512V27.5116H88.3308V10.6104H97.6837V8.50512H86.0599Z" fill="white"/>
<path d="M112.857 16.5321V8.47995H115.128V27.4865H112.857V18.6878H103.563V27.4865H101.283V8.47995H103.563V16.5321H112.857Z" fill="white"/>
</svg>
