<svg width="16" height="16" viewBox="0 0 16 16" fill="none" xmlns="http://www.w3.org/2000/svg">
<path d="M10.2473 2.29321L12.388 6.00121L14.67 6.00133V7.33468L13.892 7.33455L13.3876 13.39C13.3588 13.7355 13.0699 14.0013 12.7232 14.0013H3.28343C2.9367 14.0013 2.64786 13.7355 2.61906 13.39L2.114 7.33455L1.33667 7.33468V6.00133L3.618 6.00121L5.75932 2.29321L6.91402 2.95988L5.158 6.00121H10.848L9.09268 2.95988L10.2473 2.29321ZM12.554 7.33455L3.452 7.33468L3.89667 12.668H12.1093L12.554 7.33455ZM8.67002 8.66801V11.3347H7.33668V8.66801H8.67002ZM6.00334 8.66801V11.3347H4.67V8.66801H6.00334ZM11.3367 8.66801V11.3347H10.0033V8.66801H11.3367Z" fill="white"/>
</svg>
