<svg width="16" height="16" viewBox="0 0 16 16" fill="none" xmlns="http://www.w3.org/2000/svg">
<path d="M11.3962 4.76445C11.7916 4.62098 11.9879 4.56935 12.0966 4.55088C12.0974 4.58565 12.0966 4.61384 12.0948 4.63233C11.9397 6.26161 11.2604 10.27 10.9115 12.1352C10.8298 12.572 10.7671 12.78 10.3453 12.5322C10.0676 12.369 9.81633 12.1636 9.54713 11.9872C8.66407 11.4082 7.4 10.5461 7.5038 10.598C6.63441 10.025 6.99833 9.67423 7.48367 9.20637C7.56227 9.13063 7.644 9.05183 7.7242 8.9685C7.76 8.9313 7.93513 8.76843 8.18207 8.5389C8.97413 7.8025 10.5047 6.37952 10.5434 6.21484C10.5497 6.18783 10.5556 6.08713 10.4957 6.03395C10.4359 5.98078 10.3477 5.99896 10.2839 6.01342C10.1936 6.03392 8.75507 6.98476 5.96829 8.8659C5.55996 9.1463 5.19011 9.28296 4.85874 9.27576L4.86171 9.27723C4.42521 9.1233 3.98993 8.99076 3.55237 8.8575C3.26491 8.7699 2.97646 8.68203 2.68603 8.58763C2.61499 8.56456 2.54569 8.54263 2.48055 8.52216C5.49854 7.20743 7.50867 6.34178 8.51593 5.92283C9.97893 5.31432 10.8467 4.96384 11.3962 4.76445ZM13.0113 3.47887C12.8423 3.34179 12.6567 3.27888 12.5277 3.24806C12.3945 3.21624 12.2679 3.206 12.1719 3.2077C11.8543 3.21329 11.5131 3.30362 10.9414 3.51108C10.3582 3.72271 9.462 4.08525 8.00387 4.69174C6.97587 5.11932 4.92925 6.00093 1.8691 7.33416C1.6003 7.44163 1.3539 7.56356 1.15922 7.7081C0.979458 7.84163 0.727818 8.0805 0.681785 8.44776C0.647011 8.7251 0.727878 8.9811 0.891878 9.1827C1.03465 9.35816 1.21756 9.46477 1.35686 9.53223C1.56363 9.63237 1.84184 9.71956 2.08634 9.79623C2.46843 9.91597 2.84963 10.0383 3.23253 10.1555C4.41794 10.5184 5.39377 10.817 6.46747 11.5246C7.255 12.0436 8.02733 12.5852 8.8162 13.1022C9.10393 13.2908 9.37287 13.5073 9.66993 13.6818C9.9944 13.8724 10.4069 14.0463 10.9091 14C11.6679 13.9302 12.0627 13.2321 12.2221 12.3804C12.5701 10.5199 13.2606 6.45584 13.4221 4.75866C13.4432 4.53712 13.4185 4.28883 13.398 4.16895C13.3769 4.0455 13.3123 3.72315 13.0113 3.47887Z" fill="black" fill-opacity="0.85"/>
</svg>
