<svg width="20" height="20" viewBox="0 0 20 20" fill="none" xmlns="http://www.w3.org/2000/svg">
<path d="M8.24371 9.1214C8.868 10.2192 9.7808 11.132 10.8786 11.7563L11.4683 10.9307C11.6643 10.6563 12.0344 10.5715 12.3304 10.7332C13.2683 11.2455 14.3047 11.5569 15.3859 11.6425C15.7327 11.6699 16 11.9593 16 12.3071V15.2823C16 15.6241 15.7415 15.9105 15.4015 15.9454C15.0482 15.9817 14.6918 16 14.3333 16C8.6264 16 4 11.3736 4 5.66667C4 5.30818 4.01828 4.95181 4.05459 4.59851C4.08953 4.2585 4.37596 4 4.71777 4H7.69295C8.04073 4 8.33009 4.26736 8.35753 4.61406C8.44311 5.69525 8.75447 6.73176 9.2668 7.66963C9.42847 7.9656 9.34367 8.33569 9.06927 8.53171L8.24371 9.1214ZM6.56283 8.68347L7.82947 7.77873C7.47031 7.00343 7.22419 6.18122 7.09818 5.33333H5.33938C5.33535 5.44421 5.33333 5.55533 5.33333 5.66667C5.33333 10.6372 9.3628 14.6667 14.3333 14.6667C14.4447 14.6667 14.5558 14.6647 14.6667 14.6606V12.9018C13.8188 12.7758 12.9966 12.5297 12.2213 12.1705L11.3165 13.4372C10.9505 13.295 10.5971 13.1277 10.2583 12.9374L10.2195 12.9153C8.91313 12.1725 7.82756 11.0869 7.08467 9.78047L7.06263 9.74174C6.87233 9.40294 6.70503 9.04947 6.56283 8.68347Z" fill="black" fill-opacity="0.85"/>
</svg>
