<svg width="14" height="14" viewBox="0 0 14 14" fill="none" xmlns="http://www.w3.org/2000/svg">
<path d="M10.3335 2.99992H13.6668V4.33325H12.3335V12.9999C12.3335 13.3681 12.035 13.6666 11.6668 13.6666H2.3335C1.96531 13.6666 1.66683 13.3681 1.66683 12.9999V4.33325H0.333496V2.99992H3.66683V0.999919C3.66683 0.631732 3.96531 0.333252 4.3335 0.333252H9.66683C10.035 0.333252 10.3335 0.631732 10.3335 0.999919V2.99992ZM11.0002 4.33325H3.00016V12.3333H11.0002V4.33325ZM7.94296 8.33305L9.1215 9.51159L8.1787 10.4544L7.00016 9.27585L5.82163 10.4544L4.87884 9.51159L6.05736 8.33305L4.87884 7.15459L5.82163 6.21179L7.00016 7.39025L8.1787 6.21179L9.1215 7.15459L7.94296 8.33305ZM5.00016 1.66659V2.99992H9.00016V1.66659H5.00016Z" fill="black" fill-opacity="0.85"/>
</svg>
