<svg width="20" height="20" viewBox="0 0 20 20" fill="none" xmlns="http://www.w3.org/2000/svg">
<path d="M5.88453 5.88516C5.65554 6.11773 5.50425 6.44447 5.42111 7.06563C5.33507 7.70845 5.33367 8.56065 5.33367 9.78651V10.2132C5.33367 11.4372 5.33507 12.2886 5.42111 12.9314C5.50424 13.5525 5.6556 13.881 5.88565 14.1156C6.11822 14.3446 6.44496 14.496 7.06611 14.5791C7.70894 14.6651 8.56114 14.6665 9.78703 14.6665H10.2137C11.4377 14.6665 12.2891 14.6651 12.9319 14.5791C13.553 14.496 13.8814 14.3446 14.1162 14.1145C14.3452 13.882 14.4964 13.5552 14.5796 12.9341C14.6656 12.2912 14.667 11.439 14.667 10.2132V9.78651C14.667 8.56247 14.6656 7.71113 14.5796 7.06829C14.4964 6.44721 14.3451 6.11875 14.115 5.88404C13.8824 5.65505 13.5557 5.50376 12.9346 5.42062C12.2918 5.33459 11.4396 5.33318 10.2137 5.33318H9.78703C8.56295 5.33318 7.71162 5.33459 7.06878 5.42062C6.44771 5.50375 6.11925 5.65511 5.88453 5.88516ZM9.78703 3.99985H10.2137C11.1766 3.99985 12.1546 3.97101 13.1114 4.09908C13.8824 4.20227 14.5352 4.42344 15.0562 4.93955L15.0618 4.9451C15.5768 5.46753 15.7979 6.12031 15.9011 6.89141C16.0291 7.84739 16.0004 8.82451 16.0004 9.78651V10.2132C16.0004 11.1761 16.0292 12.1541 15.9011 13.111C15.7979 13.882 15.5768 14.5346 15.0606 15.0557L15.0551 15.0613C14.5326 15.5764 13.8799 15.7974 13.1088 15.9006C12.1528 16.0286 11.1757 15.9998 10.2137 15.9998H9.78703C8.8241 15.9998 7.84608 16.0287 6.88923 15.9006C6.11823 15.7974 5.46554 15.5762 4.94451 15.0602L4.9389 15.0546C4.42383 14.5322 4.20277 13.8794 4.09957 13.1083C3.97161 12.1523 4.00034 11.1752 4.00034 10.2132V9.78651C4.00034 8.82364 3.97149 7.84559 4.09957 6.88875C4.20276 6.11775 4.42392 5.46505 4.94004 4.94402L4.94559 4.93842C5.46802 4.42335 6.12079 4.20228 6.8919 4.09908C7.84787 3.97113 8.82496 3.99985 9.78703 3.99985ZM6.02443 7.65197C6.08843 10.772 7.64843 12.644 10.3844 12.644H10.3884H10.5444V10.86C11.5484 10.96 12.3084 11.696 12.6124 12.644H14.0324C13.8868 12.1053 13.6286 11.6036 13.2749 11.172C12.9212 10.7404 12.48 10.3886 11.9804 10.14C12.4281 9.86737 12.8147 9.50537 13.1162 9.07657C13.4176 8.64781 13.6274 8.16147 13.7324 7.64797H12.4444C12.1644 8.63997 11.3324 9.53997 10.5444 9.62397V7.65197H9.25243V11.108C8.45243 10.908 7.44443 9.93997 7.40043 7.65197H6.02443Z" fill="black" fill-opacity="0.85"/>
</svg>
